<svg width="670" height="115" viewBox="0 0 670 115" fill="none" xmlns="http://www.w3.org/2000/svg">
<path d="M111.78 51.977L62.035 2.2381C59.1728 -0.626699 54.5268 -0.626699 51.661 2.2381L41.332 12.5681L54.434 25.6701C57.4799 24.6417 60.9711 25.3312 63.3979 27.7585C65.8373 30.2009 66.5219 33.7219 65.4677 36.778L78.0957 49.406C81.1508 48.3532 84.6757 49.0334 87.1152 51.4772C90.5258 54.8868 90.5258 60.4117 87.1152 63.8222C83.7041 67.2338 78.1792 67.2338 74.7662 63.8222C72.2017 61.2557 71.5674 57.4877 72.8663 54.328L61.0893 42.551L61.0883 73.542C61.9198 73.9536 62.7045 74.503 63.3974 75.1929C66.807 78.6021 66.807 84.126 63.3974 87.5409C59.9868 90.95 54.4594 90.95 51.0524 87.5409C47.6423 84.1263 47.6423 78.6024 51.0524 75.1929C51.8951 74.3517 52.8703 73.7149 53.9108 73.2881V42.0091C52.8698 41.5841 51.8958 40.9521 51.0518 40.1041C48.4688 37.5231 47.8467 33.7321 49.1714 30.5602L36.2554 17.6422L2.1494 51.7472C-0.716303 54.6142 -0.716303 59.2602 2.1494 62.1252L51.8914 111.864C54.7552 114.729 59.3996 114.729 62.2674 111.864L111.779 62.3602C114.644 59.494 114.644 54.8466 111.779 51.9812" fill="#F05133"/>
<path d="M169.301 83.9766C160.089 83.9766 152.927 81.5352 147.816 76.6523C142.738 71.737 140.199 64.7546 140.199 55.7051C140.199 46.3626 142.559 39.2012 147.279 34.2207C151.999 29.2077 158.738 26.7012 167.494 26.7012C175.827 26.7012 182.257 28.8822 186.781 33.2441C191.339 37.5736 193.617 43.8236 193.617 51.9941V60.4902H159.486C159.617 63.5827 160.74 66.0078 162.855 67.7656C165.004 69.5234 167.917 70.4023 171.596 70.4023C174.949 70.4023 178.025 70.0931 180.824 69.4746C183.656 68.8236 186.716 67.7331 190.004 66.2031V79.9238C187.009 81.4538 183.917 82.5117 180.727 83.0977C177.536 83.6836 173.728 83.9766 169.301 83.9766ZM168.178 39.6895C165.932 39.6895 164.044 40.4056 162.514 41.8379C161.016 43.2376 160.137 45.4512 159.877 48.4785H176.283C176.218 45.8092 175.453 43.6771 173.988 42.082C172.556 40.487 170.619 39.6895 168.178 39.6895ZM247.133 66.0078C247.133 71.9323 245.115 76.4082 241.078 79.4355C237.042 82.4629 231.247 83.9766 223.695 83.9766C219.594 83.9766 216.029 83.7487 213.002 83.293C209.975 82.8698 206.882 82.0723 203.725 80.9004V65.6172C206.687 66.9193 209.926 67.9935 213.441 68.8398C216.99 69.6862 220.147 70.1094 222.914 70.1094C227.048 70.1094 229.115 69.1654 229.115 67.2773C229.115 66.3008 228.529 65.4382 227.357 64.6895C226.218 63.9082 222.865 62.4108 217.299 60.1973C212.221 58.1139 208.673 55.7539 206.654 53.1172C204.636 50.4479 203.627 47.0788 203.627 43.0098C203.627 37.8665 205.613 33.8626 209.584 30.998C213.555 28.1335 219.171 26.7012 226.43 26.7012C230.076 26.7012 233.493 27.1081 236.684 27.9219C239.906 28.7031 243.243 29.8587 246.693 31.3887L241.518 43.6934C238.979 42.554 236.293 41.5938 233.461 40.8125C230.629 39.9987 228.318 39.5918 226.527 39.5918C223.402 39.5918 221.84 40.3568 221.84 41.8867C221.84 42.8307 222.377 43.6445 223.451 44.3281C224.558 44.9792 227.715 46.3301 232.924 48.3809C236.798 49.9759 239.678 51.5384 241.566 53.0684C243.487 54.5983 244.887 56.4049 245.766 58.4883C246.677 60.5391 247.133 63.0456 247.133 66.0078ZM300.453 66.0078C300.453 71.9323 298.435 76.4082 294.398 79.4355C290.362 82.4629 284.568 83.9766 277.016 83.9766C272.914 83.9766 269.35 83.7487 266.322 83.293C263.295 82.8698 260.202 82.0723 257.045 80.9004V65.6172C260.007 66.9193 263.246 67.9935 266.762 68.8398C270.31 69.6862 273.467 70.1094 276.234 70.1094C280.368 70.1094 282.436 69.1654 282.436 67.2773C282.436 66.3008 281.85 65.4382 280.678 64.6895C279.538 63.9082 276.186 62.4108 270.619 60.1973C265.541 58.1139 261.993 55.7539 259.975 53.1172C257.956 50.4479 256.947 47.0788 256.947 43.0098C256.947 37.8665 258.933 33.8626 262.904 30.998C266.876 28.1335 272.491 26.7012 279.75 26.7012C283.396 26.7012 286.814 27.1081 290.004 27.9219C293.227 28.7031 296.563 29.8587 300.014 31.3887L294.838 43.6934C292.299 42.554 289.613 41.5938 286.781 40.8125C283.949 39.9987 281.638 39.5918 279.848 39.5918C276.723 39.5918 275.16 40.3568 275.16 41.8867C275.16 42.8307 275.697 43.6445 276.771 44.3281C277.878 44.9792 281.036 46.3301 286.244 48.3809C290.118 49.9759 292.999 51.5384 294.887 53.0684C296.807 54.5983 298.207 56.4049 299.086 58.4883C299.997 60.5391 300.453 63.0456 300.453 66.0078ZM337.758 83.9766C328.546 83.9766 321.384 81.5352 316.273 76.6523C311.195 71.737 308.656 64.7546 308.656 55.7051C308.656 46.3626 311.016 39.2012 315.736 34.2207C320.456 29.2077 327.195 26.7012 335.951 26.7012C344.285 26.7012 350.714 28.8822 355.238 33.2441C359.796 37.5736 362.074 43.8236 362.074 51.9941V60.4902H327.943C328.074 63.5827 329.197 66.0078 331.312 67.7656C333.461 69.5234 336.374 70.4023 340.053 70.4023C343.406 70.4023 346.482 70.0931 349.281 69.4746C352.113 68.8236 355.173 67.7331 358.461 66.2031V79.9238C355.466 81.4538 352.374 82.5117 349.184 83.0977C345.993 83.6836 342.185 83.9766 337.758 83.9766ZM336.635 39.6895C334.389 39.6895 332.501 40.4056 330.971 41.8379C329.473 43.2376 328.594 45.4512 328.334 48.4785H344.74C344.675 45.8092 343.91 43.6771 342.445 42.082C341.013 40.487 339.076 39.6895 336.635 39.6895ZM407.777 83V52.8242C407.777 49.1458 407.24 46.3789 406.166 44.5234C405.124 42.6354 403.432 41.6914 401.088 41.6914C397.865 41.6914 395.538 42.9772 394.105 45.5488C392.673 48.1204 391.957 52.5312 391.957 58.7812V83H372.865V27.6777H387.27L389.662 34.5137H390.785C392.413 31.9095 394.659 29.9564 397.523 28.6543C400.421 27.3522 403.741 26.7012 407.484 26.7012C413.604 26.7012 418.357 28.4753 421.742 32.0234C425.16 35.5716 426.869 40.5684 426.869 47.0137V83H407.777ZM466.957 68.8887C469.529 68.8887 472.605 68.2539 476.186 66.9844V80.9004C473.614 82.0072 471.156 82.7884 468.812 83.2441C466.501 83.7324 463.783 83.9766 460.658 83.9766C454.245 83.9766 449.623 82.4141 446.791 79.2891C443.959 76.1315 442.543 71.2975 442.543 64.7871V41.9844H435.854V34.2207L444.35 28.2148L449.281 16.5938H461.781V27.6777H475.355V41.9844H461.781V63.5176C461.781 67.0983 463.507 68.8887 466.957 68.8887ZM505.043 83H485.951V27.6777H505.043V83ZM485.463 13.9082C485.463 11.0436 486.26 8.91146 487.855 7.51172C489.451 6.11198 492.022 5.41211 495.57 5.41211C499.118 5.41211 501.706 6.12826 503.334 7.56055C504.962 8.99284 505.775 11.1087 505.775 13.9082C505.775 19.5072 502.374 22.3066 495.57 22.3066C488.832 22.3066 485.463 19.5072 485.463 13.9082ZM554.457 83L550.795 75.6758H550.404C547.833 78.8659 545.212 81.0469 542.543 82.2188C539.874 83.3906 536.423 83.9766 532.191 83.9766C526.983 83.9766 522.882 82.4141 519.887 79.2891C516.892 76.1641 515.395 71.7695 515.395 66.1055C515.395 60.2135 517.445 55.8353 521.547 52.9707C525.648 50.0736 531.589 48.446 539.369 48.0879L548.598 47.7949V47.0137C548.598 42.4564 546.352 40.1777 541.859 40.1777C537.823 40.1777 532.696 41.5449 526.479 44.2793L520.961 31.6816C527.406 28.3613 535.544 26.7012 545.375 26.7012C552.471 26.7012 557.956 28.459 561.83 31.9746C565.736 35.4902 567.689 40.4056 567.689 46.7207V83H554.457ZM540.297 70.5C542.608 70.5 544.577 69.7676 546.205 68.3027C547.865 66.8379 548.695 64.9336 548.695 62.5898V58.293L544.301 58.4883C538.018 58.7161 534.877 61.0273 534.877 65.4219C534.877 68.8073 536.684 70.5 540.297 70.5ZM599.77 83H580.678V7.02344H599.77V83ZM655.727 66.0078C655.727 71.9323 653.708 76.4082 649.672 79.4355C645.635 82.4629 639.841 83.9766 632.289 83.9766C628.188 83.9766 624.623 83.7487 621.596 83.293C618.568 82.8698 615.476 82.0723 612.318 80.9004V65.6172C615.281 66.9193 618.52 67.9935 622.035 68.8398C625.583 69.6862 628.741 70.1094 631.508 70.1094C635.642 70.1094 637.709 69.1654 637.709 67.2773C637.709 66.3008 637.123 65.4382 635.951 64.6895C634.812 63.9082 631.459 62.4108 625.893 60.1973C620.814 58.1139 617.266 55.7539 615.248 53.1172C613.23 50.4479 612.221 47.0788 612.221 43.0098C612.221 37.8665 614.206 33.8626 618.178 30.998C622.149 28.1335 627.764 26.7012 635.023 26.7012C638.669 26.7012 642.087 27.1081 645.277 27.9219C648.5 28.7031 651.837 29.8587 655.287 31.3887L650.111 43.6934C647.572 42.554 644.887 41.5938 642.055 40.8125C639.223 39.9987 636.911 39.5918 635.121 39.5918C631.996 39.5918 630.434 40.3568 630.434 41.8867C630.434 42.8307 630.971 43.6445 632.045 44.3281C633.152 44.9792 636.309 46.3301 641.518 48.3809C645.391 49.9759 648.272 51.5384 650.16 53.0684C652.081 54.5983 653.48 56.4049 654.359 58.4883C655.271 60.5391 655.727 63.0456 655.727 66.0078Z" fill="#413000"/>
</svg>
